<?xml version="1.0"?>
<svg version="1.1" xmlns="http://www.w3.org/2000/svg" width="225" height="51" style=""><path fill="#dd00ff" d="M16.19140625,25.65625q0-1.3671875,0.83984375-2.59765625t2.080078125-2.138671875t2.705078125-1.4453125t2.6953125-0.537109375q1.4453125,0,2.568359375,0.517578125t1.904296875,1.396484375t1.201171875,2.099609375t0.419921875,2.587890625q0,2.48046875-0.947265625,4.84375t-2.2265625,4.619140625t-2.63671875,4.4921875t-2.236328125,4.482421875l1.3671875,0.0390625q0.60546875,0,1.220703125-0.0390625t1.181640625-0.234375q0.68359375-0.64453125,1.796875-0.64453125q0.44921875,0,1.083984375,0.1171875t0.751953125,0.68359375q-0.0390625,0-0.0390625,0.15625q0,0.76171875-0.91796875,1.123046875t-2.138671875,0.498046875t-2.421875,0.13671875l-1.728515625,0l-1.015625,0t-1.42578125-0.09765625t-1.279296875-0.29296875t-0.673828125-0.64453125q0.83984375-2.40234375,2.32421875-4.84375t2.958984375-4.873046875t2.55859375-4.892578125t1.083984375-4.98046875q0-0.48828125-0.166015625-1.30859375t-0.56640625-1.6015625t-1.07421875-1.318359375t-1.728515625-0.498046875q-0.95703125,0.078125-1.77734375,0.634765625t-1.474609375,1.357421875t-1.11328125,1.748046875t-0.673828125,1.787109375q0,0.3125,0.126953125,0.634765625t0.126953125,0.634765625t-0.419921875,0.400390625t-0.634765625,0.087890625q-0.80078125,0-1.240234375-0.6640625t-0.439453125-1.42578125z M26.11328125,43.859375q0.15625,0,0.21484375-0.0390625q-0.13671875,0-0.21484375,0.0390625z M34.6419921875,42.21875q0.1171875-3.1640625,0.205078125-6.484375t0.166015625-6.552734375t0.1171875-6.279296875t0.0390625-5.68359375q0.0390625-0.52734375,0.91796875-0.83984375t2.099609375-0.458984375t2.578125-0.185546875t2.412109375-0.0390625q0.234375,0,0.9765625-0.01953125l0.37109375,0q0.56640625,0,1.19140625,0.0390625q0.8203125,0.05859375,1.435546875,0.25390625t0.615234375,0.56640625q0,0.2734375-0.21484375,0.439453125t-0.498046875,0.244140625t-0.5859375,0.09765625t-0.419921875,0.01953125q-1.8359375,0-3.6328125-0.05859375q-0.48828125-0.01953125-0.99609375-0.01953125q-1.328125,0-2.6953125,0.1171875q0.078125,0.234375,0.126953125,1.416015625t0.048828125,2.666015625t-0.01953125,2.900390625t0,2.177734375l0,5.078125q0.60546875-0.0390625,1.19140625-0.0390625l1.171875,0l0.78125-0.0390625q0.390625-0.01953125,0.8203125-0.01953125q0.44921875,0,0.91796875,0.01953125q0.9375,0.0390625,1.708984375,0.224609375t0.771484375,0.654296875q0,0.3515625-0.29296875,0.517578125t-0.654296875,0.244140625t-0.68359375,0.078125l-0.361328125,0q-1.11328125,0-2.314453125-0.078125t-2.236328125-0.078125q-0.1953125,0.078125-0.419921875,0.05859375t-0.400390625-0.01953125q0,2.9296875-0.05859375,5.830078125t-0.13671875,5.771484375q0,0.56640625-0.712890625,0.7421875t-1.357421875,0.17578125q-0.72265625,0-1.142578125-0.17578125t-0.595703125-0.576171875t-0.21484375-1.064453125q-0.01953125-0.37109375-0.0390625-0.8203125q0-0.37109375,0.01953125-0.80078125z M49.772265625,36.49609375q0-0.390625,0.087890625-1.03515625t0.205078125-1.279296875t0.2734375-1.181640625t0.37109375-0.703125q0.15625-0.15625,0.537109375-0.3125t0.80078125-0.224609375t0.78125,0.05859375t0.439453125,0.517578125q-0.2734375,0.3515625-0.498046875,1.201171875t-0.341796875,1.884765625q-0.09765625,0.87890625-0.09765625,1.81640625l0,0.33203125q0.01953125,1.09375,0.1953125,2.01171875t0.537109375,1.513671875t1.005859375,0.595703125q1.3671875,0,2.5-1.259765625t2.01171875-3.076171875t1.54296875-3.857421875t1.1328125-3.564453125q0.1171875-0.44921875,0.556640625-0.60546875t0.947265625-0.107421875t0.908203125,0.244140625t0.478515625,0.46875q-0.390625,3.28125-0.615234375,6.5625t-0.224609375,6.6015625q0,0.64453125,0.05859375,1.181640625t-0.05859375,0.91796875t-0.517578125,0.60546875t-1.279296875,0.224609375q-0.1953125,0-0.498046875-0.0390625t-0.625-0.126953125t-0.546875-0.263671875t-0.224609375-0.41015625q0-1.4453125,0.107421875-2.96875t0.302734375-2.94921875q-0.52734375,0.76171875-1.162109375,1.513671875t-1.396484375,1.357421875t-1.640625,0.966796875t-1.89453125,0.361328125q-1.4453125,0-2.275390625-0.68359375t-1.25-1.708984375t-0.52734375-2.236328125t-0.107421875-2.34375z M68.1642578125,38.3125l0-0.56640625q0-0.703125,0.0390625-1.328125q0.0390625-0.87890625,0.0390625-1.4453125q0-0.3125,0.0390625-0.712890625t0.1953125-0.634765625q0.1953125-0.1953125,0.458984375-0.400390625t0.576171875-0.205078125q0.99609375,0,1.5625,0.224609375t0.60546875,0.927734375l0.078125,0.60546875q0.3515625-0.83984375,0.9375-2.080078125t1.357421875-2.36328125t1.73828125-1.9140625t2.041015625-0.791015625q0.99609375,0,1.640625,0.9375t1.025390625,2.392578125t0.537109375,3.2421875t0.21484375,3.505859375t0.078125,3.134765625t0.13671875,2.138671875q0.078125,0.60546875,0.263671875,1.279296875t0.185546875,1.240234375q0,0.15625-0.224609375,0.302734375t-0.478515625,0.244140625t-0.517578125,0.15625t-0.380859375,0.05859375q-0.76171875,0-1.083984375-1.142578125t-0.400390625-2.861328125t-0.078125-3.720703125t-0.13671875-3.720703125t-0.556640625-2.861328125t-1.337890625-1.181640625q-0.83984375,0-1.73828125,1.083984375t-1.54296875,2.880859375q-0.625,1.796875-0.859375,4.08203125q-0.078125,0.72265625-0.078125,1.4453125q0,1.58203125,0.33203125,3.1640625q0.0390625,0.2734375-0.224609375,0.41015625t-0.654296875,0.21484375t-0.791015625,0.09765625t-0.615234375,0.01953125q-0.76171875,0-1.220703125-0.537109375t-0.712890625-1.376953125t-0.341796875-1.884765625t-0.107421875-2.060546875z M93.5419921875,27.74609375l0-1.50390625l0-1.54296875q0.01953125-1.5625,0.126953125-2.998046875t0.302734375-2.392578125q0.1171875-0.52734375,0.703125-0.64453125t1.015625-0.1171875q0.80078125,0,1.181640625,0.1953125t0.498046875,0.556640625t0.09765625,0.859375t-0.01953125,1.142578125q0,0.91796875-0.0390625,2.55859375t-0.05859375,3.6328125l0,0.99609375q0,1.50390625,0.0390625,3.10546875q0.05859375,2.1484375,0.224609375,4.111328125t0.458984375,3.53515625t0.8203125,2.412109375q0.83984375-0.76171875,1.6796875-2.138671875t1.6015625-3.095703125t1.455078125-3.623046875t1.259765625-3.720703125t0.966796875-3.41796875t0.595703125-2.71484375q0.3125-1.6015625,0.419921875-3.26171875t0.107421875-3.69140625q0.60546875-0.72265625,0.9375-0.908203125t1.0546875-0.185546875q0.3515625,0,0.712890625,0.05859375t0.693359375,0.2734375l0.2734375,0.4296875l0,0.48828125q0,3.5546875-0.341796875,7.216796875t-0.72265625,7.36328125t-0.72265625,7.421875t-0.341796875,7.392578125q0,0.56640625,0.048828125,1.201171875t0.205078125,1.201171875l-0.078125,0.234375q-0.2734375,0.44921875-0.8984375,0.56640625t-1.07421875,0.1171875q-0.95703125,0-1.435546875-0.283203125t-0.634765625-0.78125t-0.13671875-1.15234375t0.01953125-1.416015625q0-2.63671875,0.234375-5.361328125t0.56640625-5.361328125q-0.3125,0.91796875-0.7421875,2.216796875t-1.005859375,2.59765625t-1.337890625,2.3828125t-1.6796875,1.552734375l0.0390625-0.0390625l-0.15625,0.078125l0.0390625,0q-0.56640625,0.3125-1.044921875,0.419921875t-1.123046875,0.107421875q-1.2890625,0-2.138671875-0.76171875t-1.376953125-1.962890625t-0.78125-2.6953125t-0.361328125-2.998046875t-0.107421875-2.861328125l0-2.236328125q0-1.07421875-0.01953125-2.55859375z M100.4951171875,43.29296875q0.0390625,0,0.0390625-0.0390625l0.0390625,0q-0.0390625,0.0390625-0.078125,0.0390625z M114.648828125,45.1484375q0-0.56640625,0.048828125-1.19140625t0.087890625-1.171875l0.1171875-2.9296875q0.1953125-3.515625,0.478515625-6.9140625t0.478515625-6.875q0.1171875-1.9140625,0.17578125-3.759765625t0.17578125-3.759765625q-0.078125-0.15625-0.078125-0.21484375q0-0.2734375,0.205078125-0.4296875t0.478515625-0.263671875t0.576171875-0.146484375t0.458984375-0.0390625l0.44921875,0q0.60546875,0.078125,0.87890625,0.380859375t0.3515625,0.72265625t0.0390625,0.8984375t-0.0390625,0.888671875q0,2.83203125-0.13671875,5.771484375t-0.3125,5.8984375t-0.322265625,5.91796875t-0.146484375,5.849609375l0,1.3671875q0,0.91796875-0.517578125,1.2109375t-1.435546875,0.29296875q-0.80078125,0-1.40625-0.3515625t-0.60546875-1.15234375z M122.8064453125,36.49609375q0-0.390625,0.087890625-1.03515625t0.205078125-1.279296875t0.2734375-1.181640625t0.37109375-0.703125q0.15625-0.15625,0.537109375-0.3125t0.80078125-0.224609375t0.78125,0.05859375t0.439453125,0.517578125q-0.2734375,0.3515625-0.498046875,1.201171875t-0.341796875,1.884765625q-0.09765625,0.87890625-0.09765625,1.81640625l0,0.33203125q0.01953125,1.09375,0.1953125,2.01171875t0.537109375,1.513671875t1.005859375,0.595703125q1.3671875,0,2.5-1.259765625t2.01171875-3.076171875t1.54296875-3.857421875t1.1328125-3.564453125q0.1171875-0.44921875,0.556640625-0.60546875t0.947265625-0.107421875t0.908203125,0.244140625t0.478515625,0.46875q-0.390625,3.28125-0.615234375,6.5625t-0.224609375,6.6015625q0,0.64453125,0.05859375,1.181640625t-0.05859375,0.91796875t-0.517578125,0.60546875t-1.279296875,0.224609375q-0.1953125,0-0.498046875-0.0390625t-0.625-0.126953125t-0.546875-0.263671875t-0.224609375-0.41015625q0-1.4453125,0.107421875-2.96875t0.302734375-2.94921875q-0.52734375,0.76171875-1.162109375,1.513671875t-1.396484375,1.357421875t-1.640625,0.966796875t-1.89453125,0.361328125q-1.4453125,0-2.275390625-0.68359375t-1.25-1.708984375t-0.52734375-2.236328125t-0.107421875-2.34375z M141.17890625,33.17578125q0-0.80078125,0.46875-1.376953125t1.142578125-0.9375t1.474609375-0.537109375t1.484375-0.17578125q0.52734375,0,1.40625,0.15625t1.71875,0.46875t1.455078125,0.8203125t0.615234375,1.19140625q0,0.3125-0.234375,0.556640625t-0.48828125,0.244140625q-0.52734375,0-0.95703125-0.341796875t-0.888671875-0.72265625t-1.005859375-0.72265625t-1.23046875-0.341796875t-1.240234375,0.439453125t-0.556640625,1.162109375q0,1.19140625,0.83984375,2.333984375t1.845703125,2.40234375t1.845703125,2.646484375t0.83984375,3.06640625q0,0.72265625-0.302734375,1.220703125t-0.80078125,0.810546875t-1.123046875,0.478515625t-1.2109375,0.166015625q-0.64453125,0-1.50390625-0.302734375t-1.62109375-0.80078125t-1.279296875-1.162109375t-0.517578125-1.38671875q0-0.3515625,0.498046875-0.44921875t0.732421875-0.09765625q0.1171875,0,0.361328125,0.078125t0.478515625,0.17578125t0.419921875,0.21484375t0.146484375,0.25390625q0.1953125,0.234375,0.595703125,0.693359375t0.80078125,0.7421875t0.703125,0.205078125t0.302734375-0.87890625q0-1.5234375-0.8203125-2.802734375t-1.787109375-2.5t-1.787109375-2.421875t-0.8203125-2.568359375z M154.1412109375,25.8125q0-0.2734375,0.5859375-0.46875t1.328125-0.322265625t1.435546875-0.185546875t0.947265625-0.09765625q0-0.52734375,0.0390625-1.064453125t0.21484375-0.95703125t0.556640625-0.673828125t1.064453125-0.25390625q0.56640625,0,0.859375,0.13671875t0.625,0.56640625q0.078125,0.234375,0.078125,0.44921875l0,0.654296875t-0.0390625,0.673828125q0.72265625-0.078125,1.435546875-0.185546875t1.435546875-0.107421875q0.52734375,0,0.72265625,0.01953125t0.390625,0.46875q0.15625,0.44921875-0.380859375,0.68359375t-1.2890625,0.3515625t-1.494140625,0.17578125t-0.8984375,0.05859375q-0.234375,3.359375-0.478515625,6.66015625t-0.244140625,6.69921875q0,1.5234375,0.09765625,3.14453125t0.546875,3.06640625q0.1171875,0.44921875,0.390625,0.83984375t0.2734375,0.83984375q0,0.2734375-0.21484375,0.4296875t-0.517578125,0.263671875t-0.60546875,0.126953125t-0.498046875,0.01953125q-1.23046875,0-1.875-0.91796875t-0.927734375-2.197265625t-0.302734375-2.626953125t-0.01953125-2.1875q0-1.71875,0.068359375-3.515625t0.166015625-3.5546875t0.2734375-3.4375t0.41015625-3.125q-0.68359375,0.078125-1.337890625,0.17578125t-1.337890625,0.09765625q-0.15625,0-0.419921875-0.01953125t-0.498046875-0.09765625t-0.400390625-0.21484375t-0.166015625-0.390625z M168.685546875,38.5859375q0-1.11328125,0.283203125-2.294921875t0.8984375-2.12890625t1.552734375-1.54296875t2.265625-0.595703125q0.99609375,0,2.099609375,0.341796875t2.021484375,0.9765625t1.494140625,1.552734375t0.576171875,2.05078125q0,1.3671875-0.498046875,2.59765625t-1.396484375,2.197265625t-2.099609375,1.5234375t-2.607421875,0.556640625q-1.15234375,0-2.01171875-0.419921875t-1.435546875-1.123046875t-0.859375-1.66015625t-0.283203125-2.03125z M171.556640625,38.546875q0,0.3515625,0.107421875,1.03515625t0.322265625,1.337890625t0.556640625,1.1328125t0.830078125,0.439453125q1.03515625-0.1171875,1.708984375-0.673828125t1.09375-1.357421875t0.5859375-1.73828125t0.166015625-1.77734375q0-1.07421875-0.419921875-1.796875t-1.376953125-1.171875q0,0.0390625,0.0390625,0.0390625t0.0390625-0.0390625l-0.48828125-0.1171875q-0.1953125-0.078125-0.478515625-0.17578125t-0.556640625-0.4296875q-0.76171875,0.2734375-1.181640625,0.703125t-0.634765625,1.044921875t-0.263671875,1.474609375t-0.048828125,2.0703125z M183.5033203125,38.3125l0-0.56640625q0-0.703125,0.0390625-1.328125q0.0390625-0.87890625,0.0390625-1.4453125q0-0.3125,0.0390625-0.712890625t0.1953125-0.634765625q0.1953125-0.1953125,0.458984375-0.400390625t0.576171875-0.205078125q0.99609375,0,1.5625,0.224609375t0.60546875,0.927734375l0.078125,0.60546875q0.3515625-0.83984375,0.9375-2.080078125t1.357421875-2.36328125t1.73828125-1.9140625t2.041015625-0.791015625q0.99609375,0,1.640625,0.9375t1.025390625,2.392578125t0.537109375,3.2421875t0.21484375,3.505859375t0.078125,3.134765625t0.13671875,2.138671875q0.078125,0.60546875,0.263671875,1.279296875t0.185546875,1.240234375q0,0.15625-0.224609375,0.302734375t-0.478515625,0.244140625t-0.517578125,0.15625t-0.380859375,0.05859375q-0.76171875,0-1.083984375-1.142578125t-0.400390625-2.861328125t-0.078125-3.720703125t-0.13671875-3.720703125t-0.556640625-2.861328125t-1.337890625-1.181640625q-0.83984375,0-1.73828125,1.083984375t-1.54296875,2.880859375q-0.625,1.796875-0.859375,4.08203125q-0.078125,0.72265625-0.078125,1.4453125q0,1.58203125,0.33203125,3.1640625q0.0390625,0.2734375-0.224609375,0.41015625t-0.654296875,0.21484375t-0.791015625,0.09765625t-0.615234375,0.01953125q-0.76171875,0-1.220703125-0.537109375t-0.712890625-1.376953125t-0.341796875-1.884765625t-0.107421875-2.060546875z M201.25078125,39.015625q0-1.3671875,0.302734375-3.22265625t1.025390625-3.515625t1.904296875-2.822265625t2.978515625-1.162109375q1.6796875,0,2.51953125,0.966796875t0.83984375,2.607421875q0,1.07421875-0.400390625,2.353515625t-1.142578125,2.421875t-1.7578125,1.904296875t-2.265625,0.76171875l-0.5078125-0.0390625q0,0.52734375,0.15625,1.416015625t0.458984375,1.767578125t0.78125,1.54296875t1.162109375,0.6640625q0.99609375,0,1.9140625-0.80078125t1.73828125-1.77734375t1.5234375-1.77734375t1.2890625-0.80078125q0.3125,0,0.64453125,0.09765625t0.37109375,0.546875q0,0.2734375-0.146484375,0.44921875t-0.263671875,0.390625q-0.60546875,1.03515625-1.318359375,1.97265625t-1.611328125,1.69921875t-1.962890625,1.201171875t-2.353515625,0.439453125q-1.6796875,0-2.79296875-0.595703125t-1.796875-1.6015625t-0.986328125-2.32421875t-0.302734375-2.763671875z M204.746875,37.53125l0.546875,0.48828125q0.390625,0.3515625,0.78125,0.15625t0.703125-0.712890625t0.576171875-1.279296875t0.46875-1.5625t0.302734375-1.5625t0.09765625-1.26953125l0-0.6640625t-0.05859375-0.703125t-0.205078125-0.556640625t-0.458984375-0.283203125q-0.09765625-0.01953125-0.17578125-0.01953125q-0.6640625,0-1.1328125,0.83984375q-0.5078125,0.9375-0.8203125,2.275390625t-0.44921875,2.744140625t-0.17578125,2.109375z"/><path fill="#" d=""/></svg>
